<svg viewBox="-0.5 -0.5 16 16" fill="none" xmlns="http://www.w3.org/2000/svg" id="Sticker-Smile-Square--Streamline-Solar" height="60" width="60">
  <desc>Sticker Smile Square Streamline Icon: https://streamlinehq.com</desc>
  <defs>
    <!-- Define the gradient for the paths -->
    <linearGradient id="gradient-smile" x1="0%" y1="0%" x2="100%" y2="100%">
      <stop offset="0%" stop-color="#0000FF" /> <!-- Blue -->
      <stop offset="33%" stop-color="#800080" /> <!-- Purple -->
      <stop offset="66%" stop-color="#FF0000" /> <!-- Red -->
      <stop offset="100%" stop-color="#FFA500" /> <!-- Orange -->
    </linearGradient>
  </defs>
  <path fill-rule="evenodd" clip-rule="evenodd" d="M10.3125 13.649312499999999c-0.0079375 0.00175 -0.0159375 0.0034374999999999996 -0.0239375 0.0051875l-0.0021875 0.0004375c-0.009875000000000002 0.0020625 -0.019750000000000004 0.004125 -0.0296875 0.0061875l-0.0009375 0.00018749999999999998c0.01025 -0.0020625 0.0204375 -0.0041875 0.030625 -0.0063750000000000005 0.00875 -0.001875 0.0174375 -0.00375 0.026125 -0.005625Z" fill="url(#gradient-smile)" stroke-width="1"></path>
  <path d="M13.75 9.375c-0.364875 0 -0.6725625000000001 0 -0.9375 0.00475 -0.57975 0.0103125 -0.955125 0.04325 -1.2781875 0.1481875 -0.951375 0.309125 -1.69725 1.055 -2.006375 2.006375 -0.10493749999999999 0.32306250000000003 -0.137875 0.6984374999999999 -0.1481875 1.2781875C9.375 13.0774375 9.375 13.385125 9.375 13.75c0.3016875 0 0.59625 -0.0305625 0.88075 -0.0886875l0.0009375 -0.00018749999999999998 0.0296875 -0.0061875 0.0021875 -0.0004375 0.0239375 -0.0051875c1.6637499999999998 -0.36325 2.9735625 -1.6730625 3.3368124999999997 -3.3368124999999997 0.0659375 -0.302 0.1006875 -0.6156874999999999 0.1006875 -0.9375Z" fill="url(#gradient-smile)" stroke-width="1"></path>
  <path fill-rule="evenodd" clip-rule="evenodd" d="M1.25 7.5c0 2.94625 0 4.4194375 0.91529375 5.3346875C3.0805812500000003 13.75 4.55371875 13.75 7.5 13.75h0.9375l-0.0000625 -0.1619375c-0.0005625 -1.00525 -0.0009375 -1.7284374999999998 0.198875 -2.3434375 0.04325 -0.133 0.093 -0.26287499999999997 0.149 -0.389375 -0.4005 0.154125 -0.8334374999999999 0.2385 -1.2853125 0.2385 -0.8030625 0 -1.54634375 -0.266625 -2.15410625 -0.717125 -0.207975 -0.1541875 -0.25160625 -0.44775000000000004 -0.09744375 -0.6557499999999999 0.15416249999999998 -0.2079375 0.44773124999999997 -0.2515625 0.6557124999999999 -0.09743750000000001 0.4552125 0.33743750000000006 1.00465 0.5328125 1.5958375 0.5328125s1.1406874999999999 -0.195375 1.595875 -0.5328125c0.1653125 -0.1225 0.384625 -0.12012500000000001 0.5450625 -0.0095625 0.4448125 -0.440625 0.9915625 -0.778625 1.6036875 -0.9775625 0.615 -0.1998125 1.3381874999999999 -0.1994375 2.3434375 -0.198875L13.75 8.4375V7.5c0 -2.94628125 0 -4.41941875 -0.9153125 -5.33470625C11.9194375 1.25 10.44625 1.25 7.5 1.25 4.55371875 1.25 3.0805812500000003 1.25 2.16529375 2.16529375 1.25 3.0805812500000003 1.25 4.55371875 1.25 7.5Zm8.125 0c0.3451875 0 0.625 -0.41974999999999996 0.625 -0.9375 0 -0.51776875 -0.2798125 -0.9375 -0.625 -0.9375s-0.625 0.41973125 -0.625 0.9375c0 0.51775 0.2798125 0.9375 0.625 0.9375Zm-3.75 0c0.345175 0 0.625 -0.41974999999999996 0.625 -0.9375C6.25 6.04473125 5.970174999999999 5.625 5.625 5.625s-0.625 0.41973125 -0.625 0.9375c0 0.51775 0.279825 0.9375 0.625 0.9375Z" fill="url(#gradient-smile)" stroke-width="1"></path>
</svg>
