<svg viewBox="-0.5 -0.5 16 16" fill="none" xmlns="http://www.w3.org/2000/svg" id="Download-Square--Streamline-Solar" height="60" width="60">
  <desc>Download Square Streamline Icon: https://streamlinehq.com</desc>
  <defs>
    <!-- Gradient definition -->
    <linearGradient id="gradient-download-square" x1="0%" y1="0%" x2="100%" y2="100%">
      <stop offset="0%" stop-color="#0000FF" /> <!-- Blue -->
      <stop offset="50%" stop-color="#00FF00" /> <!-- Green -->
      <stop offset="100%" stop-color="#FFFF00" /> <!-- Yellow -->
    </linearGradient>
  </defs>
  <path 
    fill-rule="evenodd" 
    clip-rule="evenodd" 
    d="M1.25 7.5c0 -2.94628125 0 -4.41941875 0.91529375 -5.33470625C3.0805812500000003 1.25 4.55371875 1.25 7.5 1.25c2.94625 0 4.4194375 0 5.3346875 0.91529375C13.75 3.0805812500000003 13.75 4.55371875 13.75 7.5c0 2.94625 0 4.4194375 -0.9153125 5.3346875C11.9194375 13.75 10.44625 13.75 7.5 13.75c-2.94628125 0 -4.41941875 0 -5.33470625 -0.9153125C1.25 11.9194375 1.25 10.44625 1.25 7.5Zm6.25 -3.59375c0.258875 0 0.46875 0.20986875 0.46875 0.46875v3.2433125l1.0748125 -1.07475c0.1830625 -0.1830625 0.47981250000000003 -0.1830625 0.662875 0 0.1830625 0.1830625 0.1830625 0.47981250000000003 0 0.662875l-1.875 1.875c-0.08787500000000001 0.0879375 -0.20712499999999998 0.1373125 -0.3314375 0.1373125 -0.12431249999999999 0 -0.2435625 -0.049375 -0.3314375 -0.1373125l-1.8750187500000002 -1.875c-0.18305624999999998 -0.1830625 -0.18305624999999998 -0.47981250000000003 0 -0.662875 0.18305624999999998 -0.1830625 0.47985625 -0.1830625 0.6629125 0L7.03125 7.6183125V4.375c0 -0.25888125 0.20987499999999998 -0.46875 0.46875 -0.46875Zm-2.5 6.25c-0.25888125 0 -0.46875 0.20987499999999998 -0.46875 0.46875s0.20986875 0.46875 0.46875 0.46875h5c0.258875 0 0.46875 -0.20987499999999998 0.46875 -0.46875s-0.20987499999999998 -0.46875 -0.46875 -0.46875H5Z" 
    fill="url(#gradient-download-square)" 
    stroke-width="1">
  </path>
</svg>
