<svg viewBox="-0.5 -0.5 16 16" fill="none" xmlns="http://www.w3.org/2000/svg" id="Smile-Square--Streamline-Solar" height="60" width="60">
  <desc>Smile Square Streamline Icon: https://streamlinehq.com</desc>
  <defs>
    <!-- Gradient definition -->
    <linearGradient id="gradient-smile-square" x1="0%" y1="0%" x2="100%" y2="100%">
      <stop offset="0%" stop-color="#0000FF" /> <!-- Blue -->
      <stop offset="33%" stop-color="#800080" /> <!-- Purple -->
      <stop offset="66%" stop-color="#FF0000" /> <!-- Red -->
      <stop offset="100%" stop-color="#FFA500" /> <!-- Orange -->
    </linearGradient>
  </defs>
  <path 
    fill-rule="evenodd" 
    clip-rule="evenodd" 
    d="M2.16529375 2.16529375C1.25 3.0805812500000003 1.25 4.55371875 1.25 7.5c0 2.94625 0 4.4194375 0.91529375 5.3346875C3.0805812500000003 13.75 4.55371875 13.75 7.5 13.75c2.94625 0 4.4194375 0 5.3346875 -0.9153125C13.75 11.9194375 13.75 10.44625 13.75 7.5c0 -2.94628125 0 -4.41941875 -0.9153125 -5.33470625C11.9194375 1.25 10.44625 1.25 7.5 1.25 4.55371875 1.25 3.0805812500000003 1.25 2.16529375 2.16529375ZM9.375 7.5c0.3451875 0 0.625 -0.41974999999999996 0.625 -0.9375 0 -0.51776875 -0.2798125 -0.9375 -0.625 -0.9375s-0.625 0.41973125 -0.625 0.9375c0 0.51775 0.2798125 0.9375 0.625 0.9375Zm-3.125 -0.9375c0 0.51775 -0.279825 0.9375 -0.625 0.9375s-0.625 -0.41974999999999996 -0.625 -0.9375C5 6.04473125 5.279825000000001 5.625 5.625 5.625s0.625 0.41973125 0.625 0.9375Zm-1.00158125 3.158375c0.15416249999999998 -0.208 0.4477375 -0.251625 0.6557124999999999 -0.09743750000000001 0.45524375 0.337375 1.00468125 0.5328125 1.59586875 0.5328125 0.5911875 0 1.140625 -0.1954375 1.595875 -0.5328125 0.208 -0.1541875 0.5015625 -0.11056250000000001 0.6556875 0.09743750000000001 0.1541875 0.208 0.11056250000000001 0.5015625 -0.09743750000000001 0.6556875C9.046375 10.8270625 8.303125 11.09375 7.5 11.09375c-0.803125 0 -1.546375 -0.2666875 -2.1541312500000003 -0.7171875 -0.20798125 -0.154125 -0.25160625 -0.4476875 -0.09745000000000001 -0.6556875Z" 
    fill="url(#gradient-smile-square)" 
    stroke-width="1">
  </path>
</svg>
