<svg xmlns="http://www.w3.org/2000/svg" fill="none" viewBox="0 0 24 24" id="Vintage-Tv-4--Streamline-Ultimate" height="60" width="60">
  <desc>Vintage Tv 4 Streamline Icon: https://streamlinehq.com</desc>
  <defs>
    <!-- Define a smooth gradient with blue, purple, red, and orange -->
    <linearGradient id="gradient-blend" x1="0%" y1="0%" x2="100%" y2="100%">
      <stop offset="0%" stop-color="#0000FF" /> <!-- Blue -->
      <stop offset="33%" stop-color="#800080" /> <!-- Purple -->
      <stop offset="66%" stop-color="#FF0000" /> <!-- Red -->
      <stop offset="100%" stop-color="#FFA500" /> <!-- Orange -->
    </linearGradient>
  </defs>
  <!-- Outer frame -->
  <path fill="url(#gradient-blend)" d="M21.087 6.73914H2.91306c-0.25368 0 -0.49698 0.10077 -0.67636 0.28015 -0.17938 0.17939 -0.28016 0.42268 -0.28016 0.67637V20.1304c0 0.2537 0.10078 0.497 0.28016 0.6764 0.17938 0.1794 0.42268 0.2802 0.67636 0.2802H21.087c0.2537 0 0.497 -0.1008 0.6763 -0.2802 0.1794 -0.1794 0.2802 -0.4227 0.2802 -0.6764V7.69566c0 -0.25369 -0.1008 -0.49698 -0.2802 -0.67637 -0.1793 -0.17938 -0.4226 -0.28015 -0.6763 -0.28015Z" stroke-width="1"></path>
  <!-- TV screen -->
  <path fill="url(#gradient-blend)" d="M16.3044 8.65222H7.69574c-0.76106 0 -1.49094 0.30233 -2.02909 0.84048 -0.53815 0.5381 -0.84048 1.268 -0.84048 2.0291v4.7826c0 0.7611 0.30233 1.4909 0.84048 2.0291 0.53815 0.5381 1.26803 0.8405 2.02909 0.8405h8.60866c0.7611 0 1.491 -0.3024 2.0291 -0.8405 0.5382 -0.5382 0.8405 -1.268 0.8405 -2.0291v-4.7826c0 -0.7611 -0.3023 -1.491 -0.8405 -2.0291 -0.5381 -0.53815 -1.268 -0.84048 -2.0291 -0.84048Z" stroke-width="1"></path>
  <!-- TV legs -->
  <path stroke="#191919" stroke-linecap="round" stroke-linejoin="round" d="M21.087 6.73914H2.91306c-0.25368 0 -0.49698 0.10077 -0.67636 0.28015 -0.17938 0.17939 -0.28016 0.42268 -0.28016 0.67637V20.1304c0 0.2537 0.10078 0.497 0.28016 0.6764 0.17938 0.1794 0.42268 0.2802 0.67636 0.2802H21.087c0.2537 0 0.497 -0.1008 0.6763 -0.2802 0.1794 -0.1794 0.2802 -0.4227 0.2802 -0.6764V7.69566c0 -0.25369 -0.1008 -0.49698 -0.2802 -0.67637 -0.1793 -0.17938 -0.4226 -0.28015 -0.6763 -0.28015Z" stroke-width="1"></path>
</svg>


