<svg viewBox="0 0 64 64" xmlns="http://www.w3.org/2000/svg" id="Telescope--Streamline-Emoji" height="100" width="100"><desc>Telescope Streamline Emoji: https://streamlinehq.com</desc>
<path d="M38.17333333333333 34.879999999999995 57.693333333333335 42.666666666666664c0.6666666666666666 0.27999999999999997 1.8399999999999999 -0.9333333333333332 2.6666666666666665 -2.6666666666666665s0.9066666666666667 -3.4799999999999995 0.2533333333333333 -3.7733333333333334l-18.89333333333333 -9.333333333333332Z" fill="#e8f4fa" stroke-width="1"></path><path d="M60.50666666666667 39.46666666666667c0.6266666666666666 -1.6133333333333333 0.6666666666666666 -3.0533333333333332 0 -3.3200000000000003l-18.786666666666665 -9.253333333333334 -1.3333333333333333 3.0666666666666664Z" fill="#ffffff" stroke-width="1"></path><path d="M38.17333333333333 34.879999999999995 57.693333333333335 42.666666666666664c0.6666666666666666 0.27999999999999997 1.8399999999999999 -0.9333333333333332 2.6666666666666665 -2.6666666666666665s0.9066666666666667 -3.4799999999999995 0.2533333333333333 -3.7733333333333334l-18.89333333333333 -9.333333333333332Z" fill="none" stroke="#45413c" stroke-linecap="round" stroke-linejoin="round" stroke-width="1"></path><path d="m4.1466666666666665 22.386666666666663 33.57333333333333 13.533333333333333c1.0133333333333332 0.44 2.84 -1.44 4.066666666666666 -4.213333333333333s1.4 -5.333333333333333 0.3866666666666666 -5.84L9.6 10.079999999999998Z" fill="#e8f4fa" stroke-width="1"></path><path d="M42.12 30.88c0.9199999999999999 -2.453333333333333 0.9733333333333333 -4.613333333333333 0 -5.013333333333333L9.6 10.079999999999998l-1.9733333333333332 4.466666666666667Z" fill="#ffffff" stroke-width="1"></path><path d="m4.1466666666666665 22.386666666666663 33.57333333333333 13.533333333333333c1.0133333333333332 0.44 2.84 -1.44 4.066666666666666 -4.213333333333333s1.4 -5.333333333333333 0.3866666666666666 -5.84L9.6 10.079999999999998Z" fill="none" stroke="#45413c" stroke-linecap="round" stroke-linejoin="round" stroke-width="1"></path><path d="M11.173333333333334 56.86666666666666a23.026666666666664 2.466666666666667 0 1 0 46.05333333333333 0 23.026666666666664 2.466666666666667 0 1 0 -46.05333333333333 0Z" fill="#45413c" opacity=".15" stroke-width="1"></path><path d="M18.146666666666665 14.226666666666667 9.6 10.079999999999998l-5.453333333333333 12.306666666666667 8.813333333333333 3.546666666666667c1.1866666666666665 0.5333333333333333 3.3066666666666666 -1.6666666666666665 4.7333333333333325 -4.906666666666666s1.64 -6.279999999999999 0.45333333333333337 -6.799999999999999Z" fill="#656769" stroke-width="1"></path><path d="M18.506666666666668 18.746666666666666c0.6399999999999999 -2.32 0.5466666666666666 -4.199999999999999 -0.36 -4.6L9.6 10l-1.6933333333333334 3.8266666666666667Z" fill="#87898c" stroke-width="1"></path><path d="M18.146666666666665 14.226666666666667 9.6 10.079999999999998l-5.453333333333333 12.306666666666667 8.813333333333333 3.546666666666667c1.1866666666666665 0.5333333333333333 3.3066666666666666 -1.6666666666666665 4.7333333333333325 -4.906666666666666s1.64 -6.279999999999999 0.45333333333333337 -6.799999999999999Z" fill="none" stroke="#45413c" stroke-linecap="round" stroke-linejoin="round" stroke-width="1"></path><path d="M4.141333333333333 22.404A6.7333333333333325 2.466666666666667 -66.1 1 0 9.597333333333333 10.093333333333334a6.7333333333333325 2.466666666666667 -66.1 1 0 -5.4559999999999995 12.312Z" fill="#00b8f0" stroke-width="1"></path><path d="M4.613333333333333 19.066666666666666c1.5066666666666664 -3.3866666666666667 3.733333333333333 -5.7333333333333325 4.986666666666666 -5.1466666666666665a1.1199999999999999 1.1199999999999999 0 0 1 0.5066666666666666 0.4933333333333333c0.5599999999999999 -2.1999999999999997 0.37333333333333335 -3.9333333333333336 -0.5066666666666666 -4.333333333333333 -1.2533333333333332 -0.5466666666666666 -3.4799999999999995 1.76 -4.986666666666666 5.16 -1.2533333333333332 2.8266666666666667 -1.6133333333333333 5.52 -0.9733333333333333 6.666666666666666a17.84 17.84 0 0 1 0.9733333333333333 -2.84Z" fill="#4acfff" stroke-width="1"></path><path d="M4.141333333333333 22.404A6.7333333333333325 2.466666666666667 -66.1 1 0 9.597333333333333 10.093333333333334a6.7333333333333325 2.466666666666667 -66.1 1 0 -5.4559999999999995 12.312Z" fill="none" stroke="#45413c" stroke-linecap="round" stroke-linejoin="round" stroke-width="1"></path><path d="m42.17333333333333 25.866666666666664 -3.5866666666666664 -1.7333333333333334c1.04 0.45333333333333337 0.8666666666666667 3.1333333333333333 -0.3866666666666666 5.986666666666666s-3.1333333333333333 4.773333333333333 -4.173333333333333 4.306666666666667l3.6933333333333334 1.4933333333333334c1.0133333333333332 0.44 2.84 -1.44 4.066666666666666 -4.213333333333333s1.4 -5.386666666666667 0.3866666666666666 -5.84Z" fill="#656769" stroke-width="1"></path><path d="m38.959999999999994 28 3.5866666666666664 1.6133333333333333c0.48 -1.88 0.37333333333333335 -3.373333333333333 -0.37333333333333335 -3.706666666666666l-3.5866666666666664 -1.7333333333333334c0.7733333333333332 0.29333333333333333 0.88 1.853333333333333 0.37333333333333335 3.8266666666666667Z" fill="#87898c" stroke-width="1"></path><path d="m42.17333333333333 25.866666666666664 -3.5866666666666664 -1.7333333333333334c1.04 0.45333333333333337 0.8666666666666667 3.1333333333333333 -0.3866666666666666 5.986666666666666s-3.1333333333333333 4.773333333333333 -4.173333333333333 4.306666666666667l3.6933333333333334 1.4933333333333334c1.0133333333333332 0.44 2.84 -1.44 4.066666666666666 -4.213333333333333s1.4 -5.386666666666667 0.3866666666666666 -5.84Z" fill="none" stroke="#45413c" stroke-linecap="round" stroke-linejoin="round" stroke-width="1"></path><path d="M60.57333333333333 36.14666666666666 57.54666666666666 34.666666666666664c0.6799999999999999 0.30666666666666664 0.5599999999999999 2.0533333333333332 -0.2533333333333333 3.9066666666666667s-2.04 3.1199999999999997 -2.6666666666666665 2.813333333333333c0 0 3.1333333333333333 1.24 3.1333333333333333 1.2533333333333332 0.6666666666666666 0.27999999999999997 1.8399999999999999 -0.9333333333333332 2.6666666666666665 -2.6666666666666665s0.7999999999999999 -3.533333333333333 0.14666666666666667 -3.8266666666666667Z" fill="#656769" stroke-width="1"></path><path d="m57.773333333333326 37.239999999999995 3.0133333333333328 1.3333333333333333c0.3333333333333333 -1.24 0.27999999999999997 -2.2399999999999998 -0.21333333333333332 -2.466666666666667L57.54666666666666 34.666666666666664c0.5066666666666666 0.22666666666666668 0.5733333333333333 1.3333333333333333 0.22666666666666668 2.5733333333333333Z" fill="#87898c" stroke-width="1"></path><path d="M60.57333333333333 36.14666666666666 57.54666666666666 34.666666666666664c0.6799999999999999 0.30666666666666664 0.5599999999999999 2.0533333333333332 -0.2533333333333333 3.9066666666666667s-2.04 3.1199999999999997 -2.6666666666666665 2.813333333333333c0 0 3.1333333333333333 1.24 3.1333333333333333 1.2533333333333332 0.6666666666666666 0.27999999999999997 1.8399999999999999 -0.9333333333333332 2.6666666666666665 -2.6666666666666665s0.7999999999999999 -3.533333333333333 0.14666666666666667 -3.8266666666666667Z" fill="none" stroke="#45413c" stroke-linecap="round" stroke-linejoin="round" stroke-width="1"></path><path d="M28.68 35.093333333333334h3.493333333333333v5.48h-3.493333333333333z" fill="#e8f4fa" stroke-width="1"></path><path d="M28.68 35.093333333333334h3.493333333333333v2.44h-3.493333333333333z" fill="#c0dceb" stroke-width="1"></path><path d="M28.68 35.093333333333334h3.493333333333333v5.48h-3.493333333333333z" fill="none" stroke="#45413c" stroke-linecap="round" stroke-linejoin="round" stroke-width="1"></path><path d="M23.826666666666668 57.06666666666666a1.64 1.64 0 0 0 1.5733333333333333 -1.2133333333333334l4 -15.280000000000001h-2.213333333333333a1.64 1.64 0 0 0 -1.5999999999999999 1.24l-3.3466666666666662 13.226666666666667a1.64 1.64 0 0 0 1.5866666666666664 2.0266666666666664Z" fill="#e8f4fa" stroke-width="1"></path><path d="M25.586666666666666 41.81333333333333 24.373333333333335 46.666666666666664h3.453333333333333l1.5866666666666664 -6.04h-2.2266666666666666a1.64 1.64 0 0 0 -1.5999999999999999 1.1866666666666665Z" fill="#c0dceb" stroke-width="1"></path><path d="M23.826666666666668 57.06666666666666a1.64 1.64 0 0 0 1.5733333333333333 -1.2133333333333334l4 -15.280000000000001h-2.213333333333333a1.64 1.64 0 0 0 -1.5999999999999999 1.24l-3.3466666666666662 13.226666666666667a1.64 1.64 0 0 0 1.5866666666666664 2.0266666666666664Z" fill="none" stroke="#45413c" stroke-linecap="round" stroke-linejoin="round" stroke-width="1"></path><path d="M37.026666666666664 57.06666666666666a1.6266666666666665 1.6266666666666665 0 0 1 -1.5733333333333333 -1.2133333333333334l-4 -15.280000000000001h2.2266666666666666a1.6266666666666665 1.6266666666666665 0 0 1 1.5866666666666664 1.24L38.666666666666664 55.04a1.6266666666666665 1.6266666666666665 0 0 1 -1.64 2.0266666666666664Z" fill="#e8f4fa" stroke-width="1"></path><path d="m35.25333333333333 41.81333333333333 1.2133333333333334 4.8h-3.44l-1.5866666666666664 -6.04h2.2266666666666666a1.6266666666666665 1.6266666666666665 0 0 1 1.5866666666666664 1.24Z" fill="#c0dceb" stroke-width="1"></path><path d="M37.026666666666664 57.06666666666666a1.6266666666666665 1.6266666666666665 0 0 1 -1.5733333333333333 -1.2133333333333334l-4 -15.280000000000001h2.2266666666666666a1.6266666666666665 1.6266666666666665 0 0 1 1.5866666666666664 1.24L38.666666666666664 55.04a1.6266666666666665 1.6266666666666665 0 0 1 -1.64 2.0266666666666664Z" fill="none" stroke="#45413c" stroke-linecap="round" stroke-linejoin="round" stroke-width="1"></path><path d="M35.8 44h-10.76l0.5466666666666666 -2.1466666666666665a1.64 1.64 0 0 1 1.5999999999999999 -1.24h6.48a1.64 1.64 0 0 1 1.5866666666666664 1.24Z" fill="#656769" stroke="#45413c" stroke-linecap="round" stroke-linejoin="round" stroke-width="1"></path><path d="M38.31999999999999 28.199999999999996a1.8 1.8 0 0 0 -2.5733333333333333 0.07999999999999999 9.106666666666666 9.106666666666666 0 0 1 -6.666666666666666 2.92h-4.32v1.7733333333333334a2.12 2.12 0 0 0 2.12 2.12h1.8A12.986666666666666 12.986666666666666 0 0 0 38.42666666666666 30.666666666666664a1.8 1.8 0 0 0 -0.10666666666666666 -2.466666666666667Z" fill="#656769" stroke-width="1"></path><path d="M38.31999999999999 28.199999999999996a1.8 1.8 0 0 0 -2.5733333333333333 0.07999999999999999 10 10 0 0 1 -0.9466666666666665 0.8933333333333333 2 2 0 0 1 0.44 0.30666666666666664 1.8 1.8 0 0 1 0.10666666666666666 2.5199999999999996 12.853333333333333 12.853333333333333 0 0 1 -3.24 2.6666666666666665 12.906666666666666 12.906666666666666 0 0 0 6.32 -4 1.8 1.8 0 0 0 -0.10666666666666666 -2.466666666666667Z" fill="#87898c" stroke-width="1"></path><path d="M38.31999999999999 28.199999999999996a1.8 1.8 0 0 0 -2.5733333333333333 0.07999999999999999 9.106666666666666 9.106666666666666 0 0 1 -6.666666666666666 2.92h-4.32v1.7733333333333334a2.12 2.12 0 0 0 2.12 2.12h1.8A12.986666666666666 12.986666666666666 0 0 0 38.42666666666666 30.666666666666664a1.8 1.8 0 0 0 -0.10666666666666666 -2.466666666666667Z" fill="none" stroke="#45413c" stroke-linecap="round" stroke-linejoin="round" stroke-width="1"></path></svg>

